<svg width="45" height="46" viewBox="0 0 45 46" fill="none" xmlns="http://www.w3.org/2000/svg">
<path d="M41.4999 26.1668H25.6666V42.0002C25.6666 43.5835 24.3999 45.1668 22.4999 45.1668C20.5999 45.1668 19.3333 43.5835 19.3333 42.0002V26.1668H3.49992C1.59992 26.1668 0.333252 24.9002 0.333252 23.0002C0.333252 21.1002 1.59992 19.8335 3.49992 19.8335H19.3333V4.00016C19.3333 2.10016 20.5999 0.833496 22.4999 0.833496C24.3999 0.833496 25.6666 2.10016 25.6666 4.00016V19.8335H41.4999C43.0833 19.8335 44.6666 21.1002 44.6666 23.0002C44.6666 24.9002 43.0833 26.1668 41.4999 26.1668Z" fill="#DDDDDD"/>
</svg>
